<?xml version="1.0" encoding="iso-8859-1"?>
<!-- Generator: Adobe Illustrator 19.0.0, SVG Export Plug-In . SVG Version: 6.00 Build 0)  -->
<svg version="1.1" id="Capa_1" xmlns="http://www.w3.org/2000/svg" xmlns:xlink="http://www.w3.org/1999/xlink" x="0px" y="0px"
	 viewBox="0 0 512 512" style="enable-background:new 0 0 512 512;" xml:space="preserve">
<g>
	<g>
		<path d="M507.563,239.986c-2.9-3.908-6.892-6.728-11.554-8.157l-55.834-17.021l-17.094-26.092
			c-9.047-13.822-24.882-21.496-41.346-20.027l-55.821,4.975c-4.183,0.373-7.271,4.066-6.899,8.249
			c0.373,4.183,4.066,7.271,8.249,6.898l55.822-4.975c9.158-0.813,18.004,2.666,24.135,9.237l-33.367,9.324
			c-1.285,0.359-2.5,0.981-3.452,1.916c-2.296,2.252-2.891,5.557-1.737,8.359c6.393,15.526,21.316,25.177,37.478,25.177
			c3.02,0,6.088-0.338,9.147-1.037l25.67-5.867l50.605,15.426c1.525,0.467,2.834,1.392,3.785,2.675
			c0.945,1.272,1.444,2.788,1.444,4.381c0,3.357-2.273,6.286-5.531,7.125l-17.274,4.46c-54.691,14.11-110.905,21.821-167.324,23.008
			l4.677-3.153c2.516-1.696,3.99-4.679,3.501-7.674c-0.611-3.742-3.822-6.398-7.51-6.398H167.997c-2.511,0-4.861,1.24-6.278,3.314
			l-9.63,14.093H66.996c-24.726,0-45.158-19.342-46.518-44.033l-4.841-88.195h35.337l19.189,50.194
			c1.215,3.176,4.385,5.158,7.778,4.858l214.054-19.075c4.183-0.373,7.271-4.066,6.899-8.249c-0.373-4.183-4.066-7.271-8.249-6.898
			l-47.648,4.246l-75.607-50.969c-1.255-0.847-2.735-1.299-4.25-1.299h-61.353c-2.258,0-4.473,0.892-5.95,2.601
			c-2.321,2.684-2.465,6.489-0.549,9.293l34.482,50.464l-47.455,4.229l-19.006-49.715c-1.125-2.944-3.951-4.889-7.103-4.889H7.689
			c-0.985,0-1.975,0.153-2.888,0.525c-3.165,1.293-4.963,4.342-4.789,7.495l5.282,96.216c1.802,32.752,28.905,58.406,61.702,58.406
			h74.7l-3.91,5.723c-2.369,3.467-1.479,8.199,1.988,10.568s8.199,1.479,10.568-1.988l21.668-31.71h110.439l-121.637,82.002h-44.836
			l16.916-24.754c2.369-3.467,1.479-8.199-1.988-10.569c-3.467-2.369-8.199-1.479-10.568,1.988l-24.921,36.47
			c-1.274,1.865-1.786,4.199-1.206,6.383c0.909,3.429,3.968,5.69,7.363,5.69h61.567c1.515,0,2.995-0.452,4.25-1.299l116.449-78.505
			h7.496c62.838,0,125.57-7.964,186.454-23.672l17.273-4.46c9.973-2.57,16.94-11.556,16.94-21.852
			C512,248.547,510.465,243.9,507.563,239.986z M411.9,221.988c-9.176,2.095-18.408-1.004-24.43-7.605l28.945-8.089l8.354,12.752
			L411.9,221.988z M115.973,143.993h44.843l58.151,39.202l-71.833,6.401L115.973,143.993z"/>
	</g>
</g>
<g>
	<g>
		<path d="M147.905,215.1c-12.158,0-22.051,9.893-22.051,22.052c0,12.159,9.892,22.052,22.05,22.052
			c12.158,0,22.05-9.892,22.05-22.052S160.063,215.1,147.905,215.1z M147.904,243.995c-3.774,0-6.843-3.07-6.843-6.844
			s3.069-6.844,6.843-6.844c3.774,0,6.843,3.071,6.843,6.844C154.747,240.925,151.678,243.995,147.904,243.995z"/>
	</g>
</g>
<g>
	<g>
		<path d="M210.697,213.072c-12.158,0-22.05,9.893-22.05,22.052c0,12.159,9.892,22.05,22.05,22.05c12.158,0,22.05-9.891,22.05-22.05
			S222.855,213.072,210.697,213.072z M210.697,241.966c-3.774,0-6.843-3.07-6.843-6.843c0-3.774,3.069-6.844,6.843-6.844
			c3.774,0,6.843,3.071,6.843,6.844S214.471,241.966,210.697,241.966z"/>
	</g>
</g>
<g>
	<g>
		<path d="M276.087,210.032c-12.158,0-22.051,9.891-22.051,22.05c0,12.159,9.892,22.052,22.051,22.052
			c12.158,0,22.05-9.892,22.05-22.052C298.137,219.923,288.245,210.032,276.087,210.032z M276.087,238.926
			c-3.774,0-6.843-3.07-6.843-6.844c0-3.773,3.069-6.843,6.843-6.843c3.774,0,6.843,3.07,6.843,6.843
			C282.93,235.856,279.861,238.926,276.087,238.926z"/>
	</g>
</g>
<g>
</g>
<g>
</g>
<g>
</g>
<g>
</g>
<g>
</g>
<g>
</g>
<g>
</g>
<g>
</g>
<g>
</g>
<g>
</g>
<g>
</g>
<g>
</g>
<g>
</g>
<g>
</g>
<g>
</g>
</svg>
