<?xml version="1.0" encoding="iso-8859-1"?>
<!-- Generator: Adobe Illustrator 18.0.0, SVG Export Plug-In . SVG Version: 6.00 Build 0)  -->
<!DOCTYPE svg PUBLIC "-//W3C//DTD SVG 1.1//EN" "http://www.w3.org/Graphics/SVG/1.1/DTD/svg11.dtd">
<svg version="1.1" id="Capa_1" xmlns="http://www.w3.org/2000/svg" xmlns:xlink="http://www.w3.org/1999/xlink" x="0px" y="0px"
	 viewBox="0 0 456.795 456.795" style="enable-background:new 0 0 456.795 456.795;" xml:space="preserve">
<g>
	<path d="M202.712,272.353c1.953,1.953,4.512,2.929,7.071,2.929s5.119-0.976,7.071-2.929l30.825-30.825
		c6.005-6.006,9.313-13.99,9.313-22.483c0-8.493-3.308-16.478-9.313-22.483c-10.247-10.247-25.804-12.024-37.895-5.332
		c-12.09-6.69-27.648-4.915-37.896,5.332c-6.005,6.006-9.313,13.991-9.313,22.483c0,8.493,3.308,16.478,9.313,22.484
		L202.712,272.353z M186.031,210.704c2.228-2.228,5.19-3.455,8.341-3.455s6.113,1.227,8.341,3.455
		c3.906,3.905,10.238,3.905,14.142,0c4.6-4.599,12.083-4.6,16.683,0c4.599,4.6,4.599,12.083,0,16.683l-23.753,23.753l-23.753-23.754
		c-2.228-2.228-3.455-5.19-3.455-8.341C182.575,215.895,183.802,212.932,186.031,210.704z"/>
	<path d="M453.325,170.536c-2.204-1.899-5.126-2.743-8.003-2.316l-55.223,8.231c-4.899,0.73-8.526,4.937-8.526,9.891v0.551h-15.547
		v-21.099c0-24.753-20.138-44.891-44.891-44.891H97.749l0.001-0.001H18c-9.925,0-18,8.075-18,18v37.422c0,9.925,8.075,18,18,18
		h33.63v96.679c0,24.753,20.138,44.891,44.891,44.891h224.615c24.753,0,44.891-20.138,44.891-44.891v-21.089h15.547v0.542
		c0,4.954,3.626,9.161,8.526,9.891l55.223,8.23c0.492,0.073,0.984,0.109,1.475,0.109c2.38,0,4.701-0.851,6.529-2.426
		c2.204-1.899,3.471-4.665,3.471-7.574V178.111C456.795,175.201,455.528,172.436,453.325,170.536z M20,174.323v-33.421h39.185
		c-4.768,7.129-7.555,15.69-7.555,24.892v8.529H20z M346.026,291.002c0,13.725-11.166,24.891-24.891,24.891H96.521
		c-13.725,0-24.891-11.166-24.891-24.891V165.794c0-13.725,11.166-24.891,24.891-24.891h224.615
		c13.725,0,24.891,11.166,24.891,24.891V291.002z M366.026,249.913v-43.02h15.547v43.02H366.026z M436.795,267.084l-35.223-5.25
		v-66.873l35.223-5.25V267.084z"/>
	<path d="M302.888,159.196H116.68c-5.523,0-10,4.477-10,10v124.139c0,5.523,4.477,10,10,10h186.208c5.523,0,10-4.477,10-10V169.196
		C312.888,163.673,308.411,159.196,302.888,159.196z M292.888,283.335H126.68V179.196h166.208V283.335z"/>
</g>
<g>
</g>
<g>
</g>
<g>
</g>
<g>
</g>
<g>
</g>
<g>
</g>
<g>
</g>
<g>
</g>
<g>
</g>
<g>
</g>
<g>
</g>
<g>
</g>
<g>
</g>
<g>
</g>
<g>
</g>
</svg>
